<?xml version="1.0" standalone="no"?>
<!DOCTYPE svg PUBLIC "-//W3C//DTD SVG 20010904//EN"
 "http://www.w3.org/TR/2001/REC-SVG-20010904/DTD/svg10.dtd">
<svg version="1.0" xmlns="http://www.w3.org/2000/svg"
 width="16.000000pt" height="16.000000pt" viewBox="0 0 16.000000 16.000000"
 preserveAspectRatio="xMidYMid meet">

<g transform="translate(0.000000,16.000000) scale(0.100000,-0.100000)"
fill="#000000" stroke="none">
<path d="M20 106 c-17 -22 -9 -60 15 -64 18 -2 18 -2 3 8 -23 14 -23 46 0 59
9 6 12 11 6 11 -6 0 -17 -7 -24 -14z"/>
<path d="M112 82 c-2 -36 1 -43 15 -40 20 4 30 35 15 50 -6 6 -8 0 -5 -16 3
-15 1 -26 -5 -26 -6 0 -13 17 -15 38 l-4 37 -1 -43z"/>
<path d="M75 90 c3 -5 1 -19 -5 -30 -9 -17 -8 -20 12 -20 18 0 20 2 8 10 -12
7 -12 12 -2 22 16 16 15 28 -4 28 -8 0 -12 -4 -9 -10z"/>
</g>
</svg>
